<svg id="Layer_3" enable-background="new 0 0 64 64" height="512" viewBox="0 0 64 64" width="512" xmlns="http://www.w3.org/2000/svg"><g><g><path d="m7 6c-2.761 0-5 2.239-5 5v46c0-2.761 2.239-5 5-5h37v-46z" fill="#78b761"/></g><path d="m14 12h26v34h-26z" fill="#c7e2fb"/><path d="m14 41.937c.496.037.995.063 1.5.063 12.426 0 22.5-11.417 22.5-25.5 0-1.536-.127-3.038-.356-4.5h-23.644z" fill="#ebf7fe"/><path d="m44 62h-37c-2.761 0-5-2.239-5-5 0-2.761 2.239-5 5-5h37l-1.586 1.586c-.905.905-1.414 2.133-1.414 3.414 0 1.281.509 2.509 1.414 3.414z" fill="#c1c8d1"/><g><path d="m9 6h2v46h-2z" fill="#5a8949"/></g><g><path d="m10 56h31v2h-31z" fill="#88929f"/></g><path d="m30.16 32.888c-3.918 0-7.093-3.433-7.093-7.668 0-1.151.241-2.239.662-3.219-3.317 1.025-5.729 4.137-5.729 7.819 0 4.517 3.63 8.18 8.107 8.18 3.849 0 7.065-2.709 7.893-6.339-1.107.773-2.423 1.227-3.84 1.227z" fill="#f2c351"/><path d="m32.5 20 1.082 2.304 2.418.37-1.75 1.793.413 2.533-2.163-1.196-2.163 1.196.413-2.533-1.75-1.793 2.418-.37z" fill="#f2c351"/><g><path d="m49 25h2v4h-2z" fill="#666e77"/></g><g><path d="m50 25c-6.065 0-11-4.935-11-11s4.935-11 11-11 11 4.935 11 11-4.935 11-11 11zm0-20c-4.963 0-9 4.038-9 9s4.037 9 9 9 9-4.038 9-9-4.037-9-9-9z" fill="#666e77"/></g><g fill="#88929f"><circle cx="50" cy="4" r="2"/><circle cx="40" cy="14" r="2"/><circle cx="60" cy="14" r="2"/><circle cx="50" cy="24" r="2"/><circle cx="57" cy="21" r="2"/><circle cx="43" cy="21" r="2"/><circle cx="43" cy="7" r="2"/><circle cx="57" cy="7" r="2"/></g><path d="m48 29h4v6h-4z" fill="#f7d881"/></g></svg>
